<svg xmlns="http://www.w3.org/2000/svg" viewBox="0 0 762 762" fill="none" shape-rendering="auto" width="320" height="320"><metadata xmlns:rdf="http://www.w3.org/1999/02/22-rdf-syntax-ns#" xmlns:xsi="http://www.w3.org/2001/XMLSchema-instance" xmlns:dc="http://purl.org/dc/elements/1.1/" xmlns:dcterms="http://purl.org/dc/terms/"><rdf:RDF><rdf:Description><dc:title>Adventurer</dc:title><dc:creator>Lisa Wischofsky</dc:creator><dc:source xsi:type="dcterms:URI">https://www.figma.com/community/file/1184595184137881796</dc:source><dcterms:license xsi:type="dcterms:URI">https://creativecommons.org/licenses/by/4.0/</dcterms:license><dc:rights>Remix of „Adventurer” (https://www.figma.com/community/file/1184595184137881796) by „Lisa Wischofsky”, licensed under „CC BY 4.0” (https://creativecommons.org/licenses/by/4.0/)</dc:rights></rdf:Description></rdf:RDF></metadata><mask id="viewboxMask"><rect width="762" height="762" rx="0" ry="0" x="0" y="0" fill="#fff" /></mask><g mask="url(#viewboxMask)"><path d="M396 164.8a224.8 224.8 0 0 1 104.8 42.4c6.2 4.9 12.5 9.4 18 15a225.4 225.4 0 0 1 71.8 149 58.5 58.5 0 0 1 50.9 42.2 71 71 0 0 1-27.6 76.5c-11 7.7-24.5 12-38 11.7-5 0-10-1.6-15-1.8-1.9 2.2-3.3 4.9-4.8 7.3A223.3 223.3 0 0 1 389 609.8c-11 .7-21.9 2-33 .7a223.7 223.7 0 0 1-178.8-342.3A223.4 223.4 0 0 1 352 163.5c14.6-1.4 29.4-.3 44 1.3Z" fill="#000"/><path fill-rule="evenodd" clip-rule="evenodd" d="M498.8 213.2A216 216 0 0 0 363 169c-13-.2-26.2 1.6-39 4a218 218 0 0 0-113.6 365.5 218.5 218.5 0 0 0 260.4 40.2c35-18.8 64.2-47.3 84.4-81.5l-3-1.6c-2.8-1.4-5.7-3-8-5-2.2-2-.3-5.8 2.7-4.7 1.5.7 3 1.6 4.4 2.4a55 55 0 0 0 59.6-3.6 64.5 64.5 0 0 0 25-69.8 53.1 53.1 0 0 0-24-31 52.6 52.6 0 0 0-47-2.8c-1.6.8-3.4 1.5-5 1.3-2.5-.2-2.8-4.2-.6-5.2 8-4 16.5-5.6 25.4-6.4a217 217 0 0 0-72-146.4c-4.4-4-8.7-8.1-13.9-11.3Zm107.6 196.2c2-1.2 1.3-5.1-1.4-5-2 0-4.2.8-6.2 1.6l-1.4.4a95.1 95.1 0 0 0-25.5 12.4c-2.2 2-2.2 4.4.1 6.2a92 92 0 0 0 5.2 2.8 36 36 0 0 1 13 9.2c-.2 1.9-2 3.4-3.4 4.5l-.2.2c-3.9 3-8.8 5-13.6 7-2.5 1-4.9 2-7.1 3.1-1.7.8-2.6 2.2-1.6 3.9 1 2 3.2 1.1 5 .5l.6-.2 5.4-2.3c5.4-2.3 11-4.5 15.4-8 2.7-2.1 5.1-5.1 5.4-8.7-.5-3.4-2.7-5.7-5.3-7.8a83 83 0 0 0-11.6-7.2l-1.1-.6c5.4-3 10.8-5.6 16.6-7.7l5-1.7a52 52 0 0 0 6.7-2.6Z" fill="#763900"/><g transform="translate(-161 -83)"><path d="M589.3 432.7a64.4 64.4 0 0 1 28.5 33.5 64.3 64.3 0 0 1 .5 45.1c-1 2.9-2.9 5.2-6.3 4.8-15-.8-30 .1-45 .5-10 1.1-20 2.2-30 3.8-10.5 1.8-20.6 4.1-31 6.1-4.3-.1-5.3-4.2-7.2-7.3A65.5 65.5 0 0 1 546 425c14.8-2.6 30.5.2 43.4 7.7Z" fill="#000"/><path d="M558 429.9a59.1 59.1 0 0 1 54.4 80.6l-3.2-.3a27 27 0 0 0 1.3-15.4 26.6 26.6 0 1 0-50 16.9 287 287 0 0 0-34 5.2c-6.7 1.2-13.4 3.2-20.1 4A59.8 59.8 0 0 1 517 445a59 59 0 0 1 41-15.1Z" fill="#fff"/><path d="M392 447a54.8 54.8 0 0 1 42.8 81.9c-1.1 1.9-2.9 4-5 4.7-3 .8-6.6-.2-9.6-.9-8.7-2-17.4-3.8-26.3-5.1-12.9-.9-26-1-39 0-4.7.4-9.7 1.4-14.5 1-2.3-1-3.7-4.2-4.6-6.4a54.9 54.9 0 0 1 56.2-75Z" fill="#000"/><path d="M401.5 454.7a49.3 49.3 0 0 1 26.7 74l-4.1-.7c4.1-4.4 7-9.8 6.8-16a22.6 22.6 0 0 0-43.7-8.8c-2.5 5.9-1.9 12 .4 18-7.6.2-15-.4-22.6.3-7.3.7-14.7 1.2-22 1.8l-1.9-3.4a49.2 49.2 0 0 1 60.4-65.2Z" fill="#fff"/></g><g transform="translate(-161 -83)"><path d="M545 378.5c24.7 1 48 9 69.5 21 2.2 1.3 4.9 2.5 6.8 4.3 1.3 2.4-.4 5.1-3.2 4.2a234.2 234.2 0 0 0-51-12c-20.4-2.4-40-3.7-60.3-.1-3.2.4-6.9 2.1-10 1.6-2.7-1.7-1.3-6.1 1.2-7.4a78.6 78.6 0 0 1 47-11.6ZM408 397c3.5.6 6.6 1.8 9.6 3.7a54 54 0 0 0-.3 3.6c-2.7.8-5.5 1.1-8.2 1.4a152 152 0 0 0-38.9 9.7 140.6 140.6 0 0 0-35.1 18.7c-2.9 2-4.2 4.8-8.1 4.4l-1.5-2.6c.9-1.6 1.6-3.2 2.7-4.7a90 90 0 0 1 38.6-29.3c12.7-5.2 27.6-8 41.2-5Z" fill="#000"/></g><g transform="translate(-161 -83)"><path d="M470 539.6c9.4-.6 18.4 5.2 25.2 11.2 9.6 8.8 17.3 20.1 23.5 31.5 12.6 23.6 20.8 50.1 23.6 76.7.5 4.4 1.5 8.7-2.5 11.9a80 80 0 0 1-23.8 6c-16 1.3-32.5-.9-48-4.9-2.4-.7-4.5-.9-5.4-3.6a210.2 210.2 0 0 1-18-65.9c-1-12.3-1-24.9 1.8-37a44.1 44.1 0 0 1 8.7-18.4c3.7-4.3 9.1-7.4 14.9-7.5Z" fill="#000"/><path d="M474.5 545.6a48 48 0 0 1 23.3 16.3c-14 6-30.9 9.6-45.8 5.8 1.2-6.2 3.8-13 8.2-17.5 3.6-3.8 9.1-6 14.3-4.6Z" fill="#fff"/><path d="M501.9 566.9a178.5 178.5 0 0 1 27.4 56.8c-6.3 1.3-12 4-17.5 7a93.6 93.6 0 0 0-30 27c-2.3 3.6-4.7 6.5-4.6 11-3-.8-6-1.5-9-2-8.4-18-14-37.2-16.9-56.7a124.2 124.2 0 0 1-.3-37c5.4 1 10.5 2.3 16 2 5-.5 10-1 15-2 6.9-1.2 13.3-3.9 19.9-6.1Z" fill="#8F2E45"/><path d="M527.5 629.6c1.5-.6 2.5.2 3.8.7 2.8 11.7 5 23.5 5.6 35.5a90 90 0 0 1-24.6 5.6c-10.5 1-20.3-.7-30.6-1.8a75 75 0 0 1 17.9-23c8-7.1 17.6-13.6 28-17Z" fill="#EA869E"/></g><g transform="translate(-161 -83)"></g><g transform="translate(-161 -83)"></g><g transform="translate(-161 -83)"><path d="M464 199.3c14.7-1 29.4 2.8 42.6 9.1a66.2 66.2 0 0 1 33.3 32.7c1 2.6 1.2 5-.7 7.1-1.5.7-3.5.6-5 1-3 1-5.3 3.4-6.5 6.3-2.8 6.3-3.9 13.4-6.1 20-2.2 7-5.2 13.5-10.2 19A98.5 98.5 0 0 1 462 323a84.4 84.4 0 0 1-45-1c-7.7-2.3-14.1-7.4-18.4-14.1-.8-1.3-.2-3.5 1.6-3.6 4.5-.4 8.8-.5 13-2.4 5.8-2.3 9-7.8 10-13.8 1.1-8.4-.5-15.9-1.4-24.2a95.3 95.3 0 0 1-.4-32.2c1.6-7.5 5.1-14.4 10.7-19.7a49.6 49.6 0 0 1 31.9-12.8Z" fill="#000"/><path d="M462 205.2c13.3-1.4 27.3 2 39.5 7.3 14.3 6.6 27 16 33.6 30.7a17.1 17.1 0 0 0-12.5 10.3c-4.3 9.9-5.4 21.1-11.1 31a62.5 62.5 0 0 1-16.3 16.7 92.4 92.4 0 0 1-60.7 18.5c-9.8-1.2-20-2.6-27.1-10a39 39 0 0 0 10.7-3.6c5.9-3.5 9.7-9.6 10.8-16.3 1.4-11.9-1.1-22.2-2.2-33.8-.8-5.2-.6-10.7-.5-16 .5-8.6 3.3-17.2 9.5-23.3a43 43 0 0 1 26.3-11.5Z" fill="#e5d7a3"/></g><g transform="translate(-161 -83)"></g></g></svg>